<svg xmlns="http://www.w3.org/2000/svg" xmlns:xlink="http://www.w3.org/1999/xlink" width="40" height="800" viewBox="0 0 40 800"><svg width="40" height="40" viewBox="0 6.75 40 40" id="changeanaly" y="0"><path fill="#0055C2" d="M2.548 42.592h34.74v3.432H2.548v-3.432zm.429-15.439h6.004V40.02H2.977V27.153zm9.435-6.434h6.004v19.298h-6.004V20.719zm9.006 9.008h6.434v10.291h-6.434V29.727zm9.865-12.009h6.004V40.02h-6.004V17.718z"></path><path fill="#0055C2" d="M34.768 7.476a2.775 2.775 0 1 0-1.877 4.821l-6.813 10.506a2.726 2.726 0 0 0-1.307-.328h-.004-.002c-.574 0-1.106.174-1.55.474l-5.933-6.846c.451-.49.727-1.146.727-1.867a2.777 2.777 0 1 0-5.554 0c0 .502.135.972.369 1.379L7.43 20.47a2.748 2.748 0 0 0-1.915-.773 2.777 2.777 0 1 0 2.465 1.501l5.435-4.869a2.754 2.754 0 0 0 1.82.684c.479 0 .931-.121 1.324-.335l5.998 6.903a2.776 2.776 0 1 0 4.99 1.671c0-.725-.278-1.386-.737-1.878l6.856-10.57a2.776 2.776 0 0 0 3.88-2.548 2.776 2.776 0 0 0-2.775-2.777l-.003-.003z"></path></svg><svg width="40" height="40" viewBox="0 6.75 40 40" id="changeanaly-active" y="40"><path fill="#FFF" d="M2.548 42.592h34.74v3.432H2.548v-3.432zm.429-15.439h6.004V40.02H2.977V27.153zm9.435-6.434h6.004v19.298h-6.004V20.719zm9.006 9.008h6.434v10.291h-6.434V29.727zm9.865-12.009h6.004V40.02h-6.004V17.718z"></path><path fill="#FFF" d="M34.768 7.476a2.775 2.775 0 1 0-1.877 4.821l-6.813 10.506a2.726 2.726 0 0 0-1.307-.328h-.004-.002c-.574 0-1.106.174-1.55.474l-5.933-6.846c.451-.49.727-1.146.727-1.867a2.777 2.777 0 1 0-5.554 0c0 .502.135.972.369 1.379L7.43 20.47a2.748 2.748 0 0 0-1.915-.773 2.777 2.777 0 1 0 2.465 1.501l5.435-4.869a2.754 2.754 0 0 0 1.82.684c.479 0 .931-.121 1.324-.335l5.998 6.903a2.776 2.776 0 1 0 4.99 1.671c0-.725-.278-1.386-.737-1.878l6.856-10.57a2.776 2.776 0 0 0 3.88-2.548 2.776 2.776 0 0 0-2.775-2.777l-.003-.003z"></path></svg><svg width="40" height="40" viewBox="0 4.5 40 40" id="comeval" y="80"><g fill="#0055C2"><path d="M19.896 6.551L0 16.917l20.035 10.295L40 16.917 19.896 6.551zM5.635 16.917l14.262-7.723 14.469 7.723-14.33 7.165-14.401-7.165z"></path><path d="M37.113 23.04l-17.078 8.763-16.87-8.555-2.782 1.148 19.652 10.54 19.791-10.575-2.713-1.321z"></path><path d="M37.113 30.551l-17.078 8.766-16.87-8.557-2.782 1.148 19.652 10.541 19.791-10.574-2.713-1.324z"></path></g></svg><svg width="40" height="40" viewBox="0 4.5 40 40" id="comeval-active" y="120"><g fill="#FFF"><path d="M19.896 6.551L0 16.917l20.035 10.295L40 16.917 19.896 6.551zM5.635 16.917l14.262-7.723 14.469 7.723-14.33 7.165-14.401-7.165z"></path><path d="M37.113 23.04l-17.078 8.763-16.87-8.555-2.782 1.148 19.652 10.54 19.791-10.575-2.713-1.321z"></path><path d="M37.113 30.551l-17.078 8.766-16.87-8.557-2.782 1.148 19.652 10.541 19.791-10.574-2.713-1.324z"></path></g></svg><svg width="40" height="40" viewBox="0 80 40 40" id="login" y="160"><path fill="#8CBDEB" d="M20 80.625C9.3 80.625.625 89.299.625 100c0 10.7 8.675 19.375 19.375 19.375 10.701 0 19.375-8.675 19.375-19.375 0-10.701-8.673-19.375-19.375-19.375zm7.231 28.458c-3.052-1.255-3.774-1.664-3.774-1.664l-.026-2.878s1.144-.861 1.5-3.583c.713.206.955-.83.994-1.492.042-.639.422-2.632-.453-2.454.181-1.33.32-2.532.257-3.169-.219-2.235-1.775-4.567-5.705-4.738-3.34.171-5.508 2.505-5.727 4.74-.063.636.065 1.837.244 3.169-.874-.18-.498 1.816-.458 2.455.042.661.278 1.7.994 1.495.356 2.722 1.499 3.59 1.499 3.59l-.029 2.892s-.724.438-3.776 1.693c-2.747 1.13-2.254.441-3.94 1.188A15.161 15.161 0 0 1 4.789 100c0-8.402 6.812-15.214 15.214-15.214 8.402 0 15.214 6.813 15.214 15.214 0 3.986-1.534 7.613-4.042 10.326-1.688-.756-1.195-.112-3.944-1.243z"></path></svg><svg width="40" height="40" viewBox="0 80 40 40" id="login-active" y="200"><path fill="#FFF" d="M20 80.625C9.3 80.625.625 89.299.625 100c0 10.7 8.675 19.375 19.375 19.375 10.701 0 19.375-8.675 19.375-19.375 0-10.701-8.673-19.375-19.375-19.375zm7.231 28.458c-3.052-1.255-3.774-1.664-3.774-1.664l-.026-2.878s1.144-.861 1.5-3.583c.713.206.955-.83.994-1.492.042-.639.422-2.632-.453-2.454.181-1.33.32-2.532.257-3.169-.219-2.235-1.775-4.567-5.705-4.738-3.34.171-5.508 2.505-5.727 4.74-.063.636.065 1.837.244 3.169-.874-.18-.498 1.816-.458 2.455.042.661.278 1.7.994 1.495.356 2.722 1.499 3.59 1.499 3.59l-.029 2.892s-.724.438-3.776 1.693c-2.747 1.13-2.254.441-3.94 1.188A15.161 15.161 0 0 1 4.789 100c0-8.402 6.812-15.214 15.214-15.214 8.402 0 15.214 6.813 15.214 15.214 0 3.986-1.534 7.613-4.042 10.326-1.688-.756-1.195-.112-3.944-1.243z"></path></svg><svg width="40" height="40" viewBox="0 4.75 40 40" id="meteodiss" y="240"><path fill="#0055C2" d="M19.958 16.597c-5.373 0-9.729 4.356-9.729 9.729v11.958h19.595V26.33c.002-5.374-4.353-9.731-9.727-9.733h-.139zM8.661 22.431a1.59 1.59 0 0 0-1.24-1.872l-4.589-.92A1.586 1.586 0 0 0 .954 21.44a1.6 1.6 0 0 0 1.253 1.312l4.587.918a1.584 1.584 0 0 0 1.867-1.239zM7.61 11.802l2.923 3.65a1.586 1.586 0 0 0 2.476-1.979l-2.923-3.651a1.588 1.588 0 0 0-2.231-.25 1.583 1.583 0 0 0-.572 1.478c.041.263.149.526.327.752zm11.083.035a1.594 1.594 0 0 0 1.534 1.348 1.603 1.603 0 0 0 1.622-1.551l-.013-4.677a1.592 1.592 0 0 0-1.551-1.622 1.584 1.584 0 0 0-1.621 1.547v.004l.012 4.676c0 .095.007.18.017.275zm11.108 4.069l3.088-3.508a1.59 1.59 0 0 0-.142-2.243 1.593 1.593 0 0 0-2.238.143l-3.091 3.521a1.573 1.573 0 0 0 .146 2.231 1.58 1.58 0 0 0 2.237-.144zm7.492 4.545l-4.623.703a1.587 1.587 0 1 0 .478 3.138l4.623-.705a1.587 1.587 0 0 0-.478-3.136zm-6.271 19.207H8.529a2.254 2.254 0 1 0 0 4.508h22.493a2.259 2.259 0 0 0 2.262-2.256 2.249 2.249 0 0 0-2.245-2.252h-.017z"></path></svg><svg width="40" height="40" viewBox="0 4.75 40 40" id="meteodiss-active" y="280"><path fill="#FFF" d="M19.958 16.597c-5.373 0-9.729 4.356-9.729 9.729v11.958h19.595V26.33c.002-5.374-4.353-9.731-9.727-9.733h-.139zM8.661 22.431a1.59 1.59 0 0 0-1.24-1.872l-4.589-.92A1.586 1.586 0 0 0 .954 21.44a1.6 1.6 0 0 0 1.253 1.312l4.587.918a1.584 1.584 0 0 0 1.867-1.239zM7.61 11.802l2.923 3.65a1.586 1.586 0 0 0 2.476-1.979l-2.923-3.651a1.588 1.588 0 0 0-2.231-.25 1.583 1.583 0 0 0-.572 1.478c.041.263.149.526.327.752zm11.083.035a1.594 1.594 0 0 0 1.534 1.348 1.603 1.603 0 0 0 1.622-1.551l-.013-4.677a1.592 1.592 0 0 0-1.551-1.622 1.584 1.584 0 0 0-1.621 1.547v.004l.012 4.676c0 .095.007.18.017.275zm11.108 4.069l3.088-3.508a1.59 1.59 0 0 0-.142-2.243 1.593 1.593 0 0 0-2.238.143l-3.091 3.521a1.573 1.573 0 0 0 .146 2.231 1.58 1.58 0 0 0 2.237-.144zm7.492 4.545l-4.623.703a1.587 1.587 0 1 0 .478 3.138l4.623-.705a1.587 1.587 0 0 0-.478-3.136zm-6.271 19.207H8.529a2.254 2.254 0 1 0 0 4.508h22.493a2.259 2.259 0 0 0 2.262-2.256 2.249 2.249 0 0 0-2.245-2.252h-.017z"></path></svg><svg width="40" height="40" viewBox="0 6 40 40" id="meteoele" y="320"><path fill="#0055C2" d="M33.298 41.175H12.23c-3.327 0-6.023-2.688-6.023-6.001 0-2.614 1.68-4.832 4.021-5.654a5.006 5.006 0 0 1 5.005-4.863c.433 0 .851.061 1.252.163a10.033 10.033 0 0 1 8.78-5.164c5.493 0 9.946 4.4 10.028 9.856 2.341.824 4.02 3.042 4.02 5.659 0 3.314-2.692 6.002-6.015 6.004zM19.956 16.037c-.267.463-.794.658-1.176.438l-.043-.024c-.383-.221-.477-.775-.209-1.236l1.242-2.151c.266-.463.793-.659 1.176-.438l.043.024c.383.221.477.775.21 1.237l-1.243 2.15zm-5.725-.794h-.049c-.443 0-.801-.433-.801-.966v-2.485c0-.533.358-.966.801-.966h.049c.441 0 .799.434.799.966v2.485c.001.533-.358.966-.799.966zm-.029 2.206c1.953 0 3.713.814 4.968 2.118a11.687 11.687 0 0 0-3.711 3.42c-.142-.008-.282-.021-.424-.021A6.625 6.625 0 0 0 8.54 28.27a6.847 6.847 0 0 1-1.236-3.927 6.894 6.894 0 0 1 6.898-6.894zm-4.565-.975c-.383.222-.91.025-1.177-.436l-1.241-2.152c-.268-.462-.174-1.016.209-1.237l.043-.024c.382-.222.909-.026 1.176.438l1.242 2.151c.266.463.173 1.016-.209 1.237l-.043.023zm-3.324 3.34c-.222.383-.776.478-1.237.209l-2.151-1.241c-.462-.267-.658-.794-.438-1.177l.024-.043c.222-.382.775-.478 1.237-.209l2.15 1.242c.463.268.659.794.438 1.176l-.023.043zM5.105 24.32v.049c0 .441-.433.8-.967.8H1.654c-.534 0-.966-.358-.966-.8v-.049c0-.443.433-.802.966-.802h2.484c.534.002.967.358.967.802zm-.031 4.345c.463-.267 1.016-.174 1.237.209l.025.044c.221.383.024.909-.438 1.176l-2.152 1.243c-.462.267-1.016.171-1.237-.211l-.024-.043c-.221-.383-.025-.909.438-1.177l2.151-1.241z"></path></svg><svg width="40" height="40" viewBox="0 6 40 40" id="meteoele-active" y="360"><path fill="#FFF" d="M33.298 41.175H12.23c-3.327 0-6.023-2.688-6.023-6.001 0-2.614 1.68-4.832 4.021-5.654a5.006 5.006 0 0 1 5.005-4.863c.433 0 .851.061 1.252.163a10.033 10.033 0 0 1 8.78-5.164c5.493 0 9.946 4.4 10.028 9.856 2.341.824 4.02 3.042 4.02 5.659 0 3.314-2.692 6.002-6.015 6.004zM19.956 16.037c-.267.463-.794.658-1.176.438l-.043-.024c-.383-.221-.477-.775-.209-1.236l1.242-2.151c.266-.463.793-.659 1.176-.438l.043.024c.383.221.477.775.21 1.237l-1.243 2.15zm-5.725-.794h-.049c-.443 0-.801-.433-.801-.966v-2.485c0-.533.358-.966.801-.966h.049c.441 0 .799.434.799.966v2.485c.001.533-.358.966-.799.966zm-.029 2.206c1.953 0 3.713.814 4.968 2.118a11.687 11.687 0 0 0-3.711 3.42c-.142-.008-.282-.021-.424-.021A6.625 6.625 0 0 0 8.54 28.27a6.847 6.847 0 0 1-1.236-3.927 6.894 6.894 0 0 1 6.898-6.894zm-4.565-.975c-.383.222-.91.025-1.177-.436l-1.241-2.152c-.268-.462-.174-1.016.209-1.237l.043-.024c.382-.222.909-.026 1.176.438l1.242 2.151c.266.463.173 1.016-.209 1.237l-.043.023zm-3.324 3.34c-.222.383-.776.478-1.237.209l-2.151-1.241c-.462-.267-.658-.794-.438-1.177l.024-.043c.222-.382.775-.478 1.237-.209l2.15 1.242c.463.268.659.794.438 1.176l-.023.043zM5.105 24.32v.049c0 .441-.433.8-.967.8H1.654c-.534 0-.966-.358-.966-.8v-.049c0-.443.433-.802.966-.802h2.484c.534.002.967.358.967.802zm-.031 4.345c.463-.267 1.016-.174 1.237.209l.025.044c.221.383.024.909-.438 1.176l-2.152 1.243c-.462.267-1.016.171-1.237-.211l-.024-.043c-.221-.383-.025-.909.438-1.177l2.151-1.241z"></path></svg><svg width="40" height="40" viewBox="0 2.25 40 40" id="produce" y="400"><path fill="#0055C2" d="M37.497 17.557v20.082a2.859 2.859 0 0 1-2.859 2.859H5.362a2.859 2.859 0 0 1-2.859-2.859V8.357a2.859 2.859 0 0 1 2.859-2.859h20.082l-2.951 2.946H5.448v29.104h29.104V20.502l2.945-2.945zm-26.832 7.776l6.996 6.996 17.344-17.343-6.996-6.996c-3.963 3.968-13.25 13.255-17.344 17.343zM36.847 13.14a1.91 1.91 0 0 0 0-2.695l-4.301-4.301a1.91 1.91 0 0 0-2.695 0l-.676.675 6.996 6.996.676-.675zM8.664 27.334a.495.495 0 0 0-.145.352v6.293c0 .273.222.496.497.496h6.292c.13 0 .255-.053.352-.145l.829-.829-6.991-6.996-.834.829z"></path></svg><svg width="40" height="40" viewBox="0 2.25 40 40" id="produce-active" y="440"><path fill="#FFF" d="M37.497 17.557v20.082a2.859 2.859 0 0 1-2.859 2.859H5.362a2.859 2.859 0 0 1-2.859-2.859V8.357a2.859 2.859 0 0 1 2.859-2.859h20.082l-2.951 2.946H5.448v29.104h29.104V20.502l2.945-2.945zm-26.832 7.776l6.996 6.996 17.344-17.343-6.996-6.996c-3.963 3.968-13.25 13.255-17.344 17.343zM36.847 13.14a1.91 1.91 0 0 0 0-2.695l-4.301-4.301a1.91 1.91 0 0 0-2.695 0l-.676.675 6.996 6.996.676-.675zM8.664 27.334a.495.495 0 0 0-.145.352v6.293c0 .273.222.496.497.496h6.292c.13 0 .255-.053.352-.145l.829-.829-6.991-6.996-.834.829z"></path></svg><svg width="40" height="40" viewBox="0 10 40 40" id="rainhour" y="480"><g fill="#0055C2"><path d="M23.574 43.117a1.19 1.19 0 0 0-1.191 1.191v3.58a1.192 1.192 0 0 0 2.383 0v-3.58a1.19 1.19 0 0 0-1.192-1.191zM9.26 43.117c-.658 0-1.192.533-1.192 1.191v3.58a1.192 1.192 0 0 0 2.384 0v-3.58c0-.659-.535-1.191-1.192-1.191zM16.414 43.117a1.19 1.19 0 0 0-1.192 1.191v3.58a1.192 1.192 0 1 0 2.383 0v-3.58a1.187 1.187 0 0 0-1.191-1.191zM28.422 16.915c-1.749-3.55-5.396-5.996-9.62-5.996-5.666 0-10.292 4.392-10.691 9.95C3.95 22.057.918 25.693.918 29.998c0 5.08 4.224 9.221 9.542 9.515l17.293.028c6.257 0 11.331-5.074 11.331-11.33-.01-6.03-4.724-10.944-10.662-11.296zm-8.421 18.782c-5.358 0-9.701-4.344-9.701-9.701 0-5.358 4.343-9.701 9.701-9.701s9.701 4.343 9.701 9.701a9.7 9.7 0 0 1-9.701 9.701zM30.728 43.117a1.19 1.19 0 0 0-1.191 1.191v3.58a1.192 1.192 0 0 0 2.382 0v-3.58a1.19 1.19 0 0 0-1.191-1.191z"></path><g><path d="M19.392 31.201h-6.489v-.931a3.5 3.5 0 0 1 .157-.996c.103-.352.258-.708.465-1.071a7.92 7.92 0 0 1 .746-1.072c.289-.352.6-.703.931-1.055l.839-.869c.393-.414.635-.739.729-.978.094-.239.146-.507.157-.808a1.123 1.123 0 0 0-.28-.791c-.197-.228-.419-.332-.669-.311-.248.021-.417.078-.512.171a1.686 1.686 0 0 0-.278.403c-.093.176-.14.389-.14.636l-.032.652h-2.08c0-.249.006-.48.017-.699a7.9 7.9 0 0 1 .108-.885c.063-.373.28-.796.652-1.272.373-.476.755-.775 1.148-.9a3.812 3.812 0 0 1 1.15-.187c.393.021.749.094 1.071.218.321.125.595.29.822.497.228.207.477.517.746.931.269.415.414.938.435 1.568.02.632-.063 1.164-.249 1.599-.166.352-.43.729-.792 1.134-.362.403-.807.854-1.334 1.35s-.834.807-.916.932l-.465.714h4.066V31.2h-.003zM26.29 31.186h-2.08V29.51h-4.006v-2.205l4.191-7.047h1.895v7.172h.651v2.048l-.651.032v1.676zm-2.08-7.515l-2.143 3.758h2.143v-3.758z"></path></g></g></svg><svg width="40" height="40" viewBox="0 10 40 40" id="rainhour-active" y="520"><g fill="#FFF"><path d="M23.574 43.117a1.19 1.19 0 0 0-1.191 1.191v3.58a1.192 1.192 0 0 0 2.383 0v-3.58a1.19 1.19 0 0 0-1.192-1.191zM9.26 43.117c-.658 0-1.192.533-1.192 1.191v3.58a1.192 1.192 0 0 0 2.384 0v-3.58c0-.659-.535-1.191-1.192-1.191zM16.414 43.117a1.19 1.19 0 0 0-1.192 1.191v3.58a1.192 1.192 0 1 0 2.383 0v-3.58a1.187 1.187 0 0 0-1.191-1.191zM28.422 16.915c-1.749-3.55-5.396-5.996-9.62-5.996-5.666 0-10.292 4.392-10.691 9.95C3.95 22.057.918 25.693.918 29.998c0 5.08 4.224 9.221 9.542 9.515l17.293.028c6.257 0 11.331-5.074 11.331-11.33-.01-6.03-4.724-10.944-10.662-11.296zm-8.421 18.782c-5.358 0-9.701-4.344-9.701-9.701 0-5.358 4.343-9.701 9.701-9.701s9.701 4.343 9.701 9.701a9.7 9.7 0 0 1-9.701 9.701zM30.728 43.117a1.19 1.19 0 0 0-1.191 1.191v3.58a1.192 1.192 0 0 0 2.382 0v-3.58a1.19 1.19 0 0 0-1.191-1.191z"></path><g><path d="M19.392 31.201h-6.489v-.931a3.5 3.5 0 0 1 .157-.996c.103-.352.258-.708.465-1.071a7.92 7.92 0 0 1 .746-1.072c.289-.352.6-.703.931-1.055l.839-.869c.393-.414.635-.739.729-.978.094-.239.146-.507.157-.808a1.123 1.123 0 0 0-.28-.791c-.197-.228-.419-.332-.669-.311-.248.021-.417.078-.512.171a1.686 1.686 0 0 0-.278.403c-.093.176-.14.389-.14.636l-.032.652h-2.08c0-.249.006-.48.017-.699a7.9 7.9 0 0 1 .108-.885c.063-.373.28-.796.652-1.272.373-.476.755-.775 1.148-.9a3.812 3.812 0 0 1 1.15-.187c.393.021.749.094 1.071.218.321.125.595.29.822.497.228.207.477.517.746.931.269.415.414.938.435 1.568.02.632-.063 1.164-.249 1.599-.166.352-.43.729-.792 1.134-.362.403-.807.854-1.334 1.35s-.834.807-.916.932l-.465.714h4.066V31.2h-.003zM26.29 31.186h-2.08V29.51h-4.006v-2.205l4.191-7.047h1.895v7.172h.651v2.048l-.651.032v1.676zm-2.08-7.515l-2.143 3.758h2.143v-3.758z"></path></g></g></svg><svg width="40" height="40" viewBox="0 5.75 40 40" id="retrieval" y="560"><path fill="#0055C2" d="M5.331 11.024c6.274-6.198 16.444-6.198 22.717 0a15.727 15.727 0 0 1 1.328 20.95l2.566 2.536c.418-.144.866-.079 1.161.214l5.979 5.905c.44.436.374 1.207-.149 1.723l-2.367 2.338c-.522.517-1.302.583-1.743.147l-5.978-5.905c-.294-.292-.36-.734-.215-1.15l-2.635-2.602c-6.273 4.417-15.036 3.847-20.663-1.713a15.736 15.736 0 0 1-.001-22.443zm3.313 19.17c4.443 4.39 11.648 4.39 16.09 0 4.442-4.391 4.442-11.507 0-15.898s-11.647-4.39-16.09 0a11.149 11.149 0 0 0 0 15.898zm14.907-14.729a.98.98 0 0 1 0 1.403 1.013 1.013 0 0 1-1.42 0l.001-.001c-3.012-2.964-7.875-2.964-10.885.001a1.014 1.014 0 0 1-1.42 0 .984.984 0 0 1 0-1.402c3.792-3.746 9.933-3.746 13.724-.001z"></path></svg><svg width="40" height="40" viewBox="0 5.75 40 40" id="retrieval-active" y="600"><path fill="#FFF" d="M5.331 11.024c6.274-6.198 16.444-6.198 22.717 0a15.727 15.727 0 0 1 1.328 20.95l2.566 2.536c.418-.144.866-.079 1.161.214l5.979 5.905c.44.436.374 1.207-.149 1.723l-2.367 2.338c-.522.517-1.302.583-1.743.147l-5.978-5.905c-.294-.292-.36-.734-.215-1.15l-2.635-2.602c-6.273 4.417-15.036 3.847-20.663-1.713a15.736 15.736 0 0 1-.001-22.443zm3.313 19.17c4.443 4.39 11.648 4.39 16.09 0 4.442-4.391 4.442-11.507 0-15.898s-11.647-4.39-16.09 0a11.149 11.149 0 0 0 0 15.898zm14.907-14.729a.98.98 0 0 1 0 1.403 1.013 1.013 0 0 1-1.42 0l.001-.001c-3.012-2.964-7.875-2.964-10.885.001a1.014 1.014 0 0 1-1.42 0 .984.984 0 0 1 0-1.402c3.792-3.746 9.933-3.746 13.724-.001z"></path></svg><svg width="40" height="40" viewBox="0 7.75 40 40" id="setting" y="640"><path fill="#0055C2" d="M37.49 31.508l-4.773 1.532 2.172 4.345-5.238 5.253-4.331-2.178-1.526 4.791h-7.408l-1.528-4.791-4.331 2.178-5.238-5.253L7.46 33.04l-4.951-1.532V24.08l4.951-1.533-2.171-4.344 5.238-5.253 4.331 2.177 1.528-4.877h7.408l1.526 4.877 4.331-2.177 5.238 5.253-2.172 4.344 4.773 1.533v7.428zM20.121 18.345c-5.13 0-9.29 4.171-9.29 9.316 0 5.146 4.16 9.318 9.29 9.318s9.29-4.171 9.29-9.318c-.001-5.145-4.161-9.316-9.29-9.316zm-.004 13.5a4.176 4.176 0 0 1-4.17-4.182 4.176 4.176 0 0 1 4.17-4.184 4.176 4.176 0 0 1 4.17 4.184 4.177 4.177 0 0 1-4.17 4.182z"></path></svg><svg width="40" height="40" viewBox="0 7.75 40 40" id="setting-active" y="680"><path fill="#FFF" d="M37.49 31.508l-4.773 1.532 2.172 4.345-5.238 5.253-4.331-2.178-1.526 4.791h-7.408l-1.528-4.791-4.331 2.178-5.238-5.253L7.46 33.04l-4.951-1.532V24.08l4.951-1.533-2.171-4.344 5.238-5.253 4.331 2.177 1.528-4.877h7.408l1.526 4.877 4.331-2.177 5.238 5.253-2.172 4.344 4.773 1.533v7.428zM20.121 18.345c-5.13 0-9.29 4.171-9.29 9.316 0 5.146 4.16 9.318 9.29 9.318s9.29-4.171 9.29-9.318c-.001-5.145-4.161-9.316-9.29-9.316zm-.004 13.5a4.176 4.176 0 0 1-4.17-4.182 4.176 4.176 0 0 1 4.17-4.184 4.176 4.176 0 0 1 4.17 4.184 4.177 4.177 0 0 1-4.17 4.182z"></path></svg><svg width="40" height="40" viewBox="0 3 40 40" id="statanaly" y="720"><g fill="#0055C2"><path d="M24.157 21.26h7.568v2.023h-7.568zM24.157 17.211h7.568v2.024h-7.568zM24.157 25.309h7.568v2.023h-7.568zM11.485 27.42v-5.984h5.983a5.984 5.984 0 1 0-5.983 5.984z"></path><path d="M21.407 7.354V3.658h-2.816v3.695H-.001v5.413H2.44v21.343h13.781l-8.878 6.529 1.46 1.986 10.954-8.06 10.954 8.06 1.461-1.986-8.878-6.529H37.56V12.767h2.441V7.354H21.407zM35.269 31.82H4.729V12.767h30.539V31.82h.001z"></path><path d="M13.597 29.092a5.98 5.98 0 0 0 5.979-5.896h-5.979v5.896z"></path></g></svg><svg width="40" height="40" viewBox="0 3 40 40" id="statanaly-active" y="760"><g fill="#FFF"><path d="M24.157 21.26h7.568v2.023h-7.568zM24.157 17.211h7.568v2.024h-7.568zM24.157 25.309h7.568v2.023h-7.568zM11.485 27.42v-5.984h5.983a5.984 5.984 0 1 0-5.983 5.984z"></path><path d="M21.407 7.354V3.658h-2.816v3.695H-.001v5.413H2.44v21.343h13.781l-8.878 6.529 1.46 1.986 10.954-8.06 10.954 8.06 1.461-1.986-8.878-6.529H37.56V12.767h2.441V7.354H21.407zM35.269 31.82H4.729V12.767h30.539V31.82h.001z"></path><path d="M13.597 29.092a5.98 5.98 0 0 0 5.979-5.896h-5.979v5.896z"></path></g></svg></svg>
